<?xml version="1.0" encoding="utf-8"?>
<!-- Generator: Adobe Illustrator 24.1.2, SVG Export Plug-In . SVG Version: 6.00 Build 0)  -->
<svg version="1.1" xmlns="http://www.w3.org/2000/svg" xmlns:xlink="http://www.w3.org/1999/xlink" x="0px" y="0px"
	 viewBox="0 0 791 611" style="enable-background:new 0 0 791 611;" xml:space="preserve">
<style type="text/css">
	.st0{display:none;}
	
		.st1{display:inline;fill:none;stroke:#000000;stroke-width:0.25;stroke-linecap:round;stroke-linejoin:round;stroke-miterlimit:10;}
	.st2{fill:none;stroke:#000000;stroke-width:0.25;stroke-linecap:round;stroke-linejoin:round;stroke-miterlimit:10;}
</style>
<g id="Livello_1" class="st0">
	<line class="st1" x1="320.34" y1="381.1" x2="320.34" y2="229.9"/>
	<line class="st1" x1="320.34" y1="229.9" x2="503.94" y2="229.9"/>
	<line class="st1" x1="503.94" y1="229.9" x2="507.54" y2="233.5"/>
	<line class="st1" x1="320.34" y1="381.1" x2="507.54" y2="381.1"/>
	<line class="st1" x1="507.54" y1="381.1" x2="507.54" y2="377.5"/>
	<line class="st1" x1="507.54" y1="377.5" x2="514.74" y2="370.3"/>
	<line class="st1" x1="507.54" y1="233.5" x2="507.54" y2="265.9"/>
	<line class="st1" x1="507.54" y1="265.9" x2="514.74" y2="273.1"/>
	<line class="st1" x1="514.74" y1="273.1" x2="514.74" y2="370.3"/>
	<path class="st1" d="M359.04,237.1c0,2.49,2.01,4.5,4.5,4.5c2.49,0,4.5-2.01,4.5-4.5c0-2.49-2.01-4.5-4.5-4.5
		C361.06,232.6,359.04,234.61,359.04,237.1"/>
	<path class="st1" d="M503.04,280.3c0,2.49,2.01,4.5,4.5,4.5s4.5-2.01,4.5-4.5c0-2.49-2.01-4.5-4.5-4.5S503.04,277.81,503.04,280.3"
		/>
	<path class="st1" d="M503.04,359.5c0,2.49,2.01,4.5,4.5,4.5s4.5-2.01,4.5-4.5s-2.01-4.5-4.5-4.5S503.04,357.01,503.04,359.5"/>
	<path class="st1" d="M355.44,373.9c0,2.49,2.01,4.5,4.5,4.5s4.5-2.01,4.5-4.5c0-2.49-2.01-4.5-4.5-4.5S355.44,371.41,355.44,373.9"
		/>
	<rect x="292.64" y="223.72" class="st1" width="227.46" height="163.56"/>
	<circle class="st1" cx="304.07" cy="236.1" r="4.42"/>
	<circle class="st1" cx="304.64" cy="374.9" r="4.42"/>
</g>
<g id="Livello_2">
	
		<rect x="350.28" y="334.4" transform="matrix(-1 -1.224647e-16 1.224647e-16 -1 772.558 698.2803)" class="st2" width="72" height="29.48"/>
	<g>
		<circle class="st2" cx="329.68" cy="282.17" r="4.59"/>
		<circle class="st2" cx="338.76" cy="264.32" r="4.59"/>
	</g>
	<path class="st2" d="M503.04,280.3c0,2.49,2.01,4.5,4.5,4.5s4.5-2.01,4.5-4.5c0-2.49-2.01-4.5-4.5-4.5S503.04,277.81,503.04,280.3"
		/>
	<path class="st2" d="M503.04,359.5c0,2.49,2.01,4.5,4.5,4.5s4.5-2.01,4.5-4.5s-2.01-4.5-4.5-4.5S503.04,357.01,503.04,359.5"/>
	<path class="st2" d="M504.65,387.28H308.09c-8.53,0-15.45-6.92-15.45-15.45V239.17c0-8.53,6.92-15.45,15.45-15.45h196.56
		c8.53,0,15.45,6.92,15.45,15.45v132.66C520.1,380.36,513.18,387.28,504.65,387.28z"/>
	<path class="st2" d="M503.04,280.3c0,2.49,2.01,4.5,4.5,4.5s4.5-2.01,4.5-4.5c0-2.49-2.01-4.5-4.5-4.5S503.04,277.81,503.04,280.3"
		/>
	<path class="st2" d="M503.04,359.5c0,2.49,2.01,4.5,4.5,4.5s4.5-2.01,4.5-4.5s-2.01-4.5-4.5-4.5S503.04,357.01,503.04,359.5"/>
	<circle class="st2" cx="304.07" cy="236.1" r="4.42"/>
	<circle class="st2" cx="304.64" cy="374.9" r="4.42"/>
</g>
<g id="Livello_3" class="st0">
	<path class="st1" d="M503.04,280.3c0,2.49,2.01,4.5,4.5,4.5s4.5-2.01,4.5-4.5c0-2.49-2.01-4.5-4.5-4.5S503.04,277.81,503.04,280.3"
		/>
	<path class="st1" d="M503.04,359.5c0,2.49,2.01,4.5,4.5,4.5s4.5-2.01,4.5-4.5s-2.01-4.5-4.5-4.5S503.04,357.01,503.04,359.5"/>
	<circle class="st1" cx="304.07" cy="236.1" r="4.42"/>
	<circle class="st1" cx="304.64" cy="374.9" r="4.42"/>
	<path class="st1" d="M504.65,387.28H308.09c-8.53,0-15.45-6.92-15.45-15.45V239.17c0-8.53,6.92-15.45,15.45-15.45h196.56
		c8.53,0,15.45,6.92,15.45,15.45v132.66C520.1,380.36,513.18,387.28,504.65,387.28z"/>
	<path class="st1" d="M320.55,331.82h8.72c5.02,0,9.09,4.07,9.09,9.09v18.57c0,5.02-4.07,9.09-9.09,9.09h-8.72
		c-5.02,0-9.09-4.07-9.09-9.09v-18.57C311.46,335.89,315.53,331.82,320.55,331.82z"/>
	<path class="st1" d="M490.16,303.97h-8.62c-3.72,0-6.73-3.01-6.73-6.73v-42.87c0-3.72,3.01-6.73,6.73-6.73h8.62
		c3.72,0,6.73,3.01,6.73,6.73v42.87C496.88,300.95,493.87,303.97,490.16,303.97z"/>
</g>
</svg>
