<?xml version="1.0" encoding="utf-8"?>
<!-- Generator: Adobe Illustrator 24.1.2, SVG Export Plug-In . SVG Version: 6.00 Build 0)  -->
<svg version="1.1" xmlns="http://www.w3.org/2000/svg" xmlns:xlink="http://www.w3.org/1999/xlink" x="0px" y="0px"
	 viewBox="0 0 791 611" style="enable-background:new 0 0 791 611;" xml:space="preserve">
<style type="text/css">
	.st0{display:none;}
	
		.st1{display:inline;fill:none;stroke:#000000;stroke-width:0.25;stroke-linecap:round;stroke-linejoin:round;stroke-miterlimit:10;}
	.st2{fill:none;stroke:#000000;stroke-width:0.25;stroke-linecap:round;stroke-linejoin:round;stroke-miterlimit:10;}
</style>
<g id="Livello_1" class="st0">
	<g id="Livello_1_1_">
		<line class="st1" x1="320.3" y1="381.1" x2="320.3" y2="229.9"/>
		<line class="st1" x1="320.3" y1="229.9" x2="503.9" y2="229.9"/>
		<line class="st1" x1="503.9" y1="229.9" x2="507.5" y2="233.5"/>
		<line class="st1" x1="320.3" y1="381.1" x2="507.5" y2="381.1"/>
		<line class="st1" x1="507.5" y1="381.1" x2="507.5" y2="377.5"/>
		<line class="st1" x1="507.5" y1="377.5" x2="514.7" y2="370.3"/>
		<line class="st1" x1="507.5" y1="233.5" x2="507.5" y2="265.9"/>
		<line class="st1" x1="507.5" y1="265.9" x2="514.7" y2="273.1"/>
		<line class="st1" x1="514.7" y1="273.1" x2="514.7" y2="370.3"/>
		<path class="st1" d="M359,237.1c0,2.5,2,4.5,4.5,4.5s4.5-2,4.5-4.5s-2-4.5-4.5-4.5C361.1,232.6,359,234.6,359,237.1"/>
		<path class="st1" d="M503,280.3c0,2.5,2,4.5,4.5,4.5s4.5-2,4.5-4.5s-2-4.5-4.5-4.5S503,277.8,503,280.3"/>
		<path class="st1" d="M503,359.5c0,2.5,2,4.5,4.5,4.5s4.5-2,4.5-4.5s-2-4.5-4.5-4.5S503,357,503,359.5"/>
		<path class="st1" d="M355.4,373.9c0,2.5,2,4.5,4.5,4.5s4.5-2,4.5-4.5s-2-4.5-4.5-4.5S355.4,371.4,355.4,373.9"/>
		<rect x="292.6" y="223.7" class="st1" width="227.5" height="163.6"/>
		<circle class="st1" cx="304.1" cy="236.1" r="4.4"/>
		<circle class="st1" cx="304.6" cy="374.9" r="4.4"/>
	</g>
	<rect x="350.3" y="334.4" class="st1" width="72" height="29.5"/>
	<circle class="st1" cx="329.7" cy="282.2" r="4.6"/>
	<circle class="st1" cx="338.8" cy="264.3" r="4.6"/>
	<path class="st1" d="M503,280.3c0,2.5,2,4.5,4.5,4.5s4.5-2,4.5-4.5s-2-4.5-4.5-4.5S503,277.8,503,280.3"/>
	<path class="st1" d="M503,359.5c0,2.5,2,4.5,4.5,4.5s4.5-2,4.5-4.5s-2-4.5-4.5-4.5S503,357,503,359.5"/>
	<path class="st1" d="M504.6,387.3H308.1c-8.5,0-15.5-6.9-15.5-15.5V239.2c0-8.5,6.9-15.4,15.5-15.4h196.6c8.5,0,15.4,6.9,15.4,15.4
		v132.7C520.1,380.4,513.2,387.3,504.6,387.3z"/>
	<path class="st1" d="M503,280.3c0,2.5,2,4.5,4.5,4.5s4.5-2,4.5-4.5s-2-4.5-4.5-4.5S503,277.8,503,280.3"/>
	<path class="st1" d="M503,359.5c0,2.5,2,4.5,4.5,4.5s4.5-2,4.5-4.5s-2-4.5-4.5-4.5S503,357,503,359.5"/>
	<circle class="st1" cx="304.1" cy="236.1" r="4.4"/>
	<circle class="st1" cx="304.6" cy="374.9" r="4.4"/>
	<g id="Livello_3">
		<path class="st1" d="M503,280.3c0,2.5,2,4.5,4.5,4.5s4.5-2,4.5-4.5s-2-4.5-4.5-4.5S503,277.8,503,280.3"/>
		<path class="st1" d="M503,359.5c0,2.5,2,4.5,4.5,4.5s4.5-2,4.5-4.5s-2-4.5-4.5-4.5S503,357,503,359.5"/>
		<circle class="st1" cx="304.1" cy="236.1" r="4.4"/>
		<circle class="st1" cx="304.6" cy="374.9" r="4.4"/>
		<path class="st1" d="M504.6,387.3H308.1c-8.5,0-15.5-6.9-15.5-15.5V239.2c0-8.5,6.9-15.4,15.5-15.4h196.6
			c8.5,0,15.4,6.9,15.4,15.4v132.7C520.1,380.4,513.2,387.3,504.6,387.3z"/>
		<path class="st1" d="M320.5,331.8h8.7c5,0,9.1,4.1,9.1,9.1v18.6c0,5-4.1,9.1-9.1,9.1h-8.7c-5,0-9.1-4.1-9.1-9.1v-18.6
			C311.5,335.9,315.5,331.8,320.5,331.8z"/>
		<path class="st1" d="M490.2,304h-8.6c-3.7,0-6.7-3-6.7-6.7v-42.9c0-3.7,3-6.7,6.7-6.7h8.6c3.7,0,6.7,3,6.7,6.7v42.9
			C496.9,301,493.9,304,490.2,304z"/>
	</g>
	<path class="st1" d="M328.6,223.7"/>
</g>
<g id="Livello_2">
	<path class="st2" d="M511.7,257.4c4.7,0,8.4-3.8,8.4-8.4v-9.8c0-8.4-4.4-10.9-5.2-11.5c-3.7-3.3-8.2-3.8-10.3-3.9h-173
		c-4,0-7.4,2.8-8.2,6.6c-0.7,3-2,6.6-4.6,9.9c-5.3,6.9-13,9.2-18.7,9.8c-4.3,0.5-7.5,4.1-7.5,8.4v91c0,4.6,3.7,8.4,8.4,8.4
		c3.4,0,7.4,0.6,11.3,2.9c6.7,3.8,11,10.9,11.9,19c0.5,4.3,4.1,7.5,8.4,7.5H485c6.5,0,10.7-7,7.4-12.6c-2.1-3.6-3.6-7.8-3.9-12.8
		c-0.1-2.5-0.9-17,9.5-22c3.5-1.7,7.6-1.9,11.6-0.9c5.3,1.3,10.5-2.7,10.5-8.2v-24.2c0-4.5-3.6-8.1-8.2-8.2
		c-6.6-0.3-12.8-3.4-16.6-8.8c-4.9-6.8-5.6-16.8,0-24.3C499.2,260.2,505.3,257.4,511.7,257.4z"/>
	<rect x="350.3" y="334.4" class="st2" width="72" height="29.5"/>
	<circle class="st2" cx="329.7" cy="282.2" r="4.6"/>
	<circle class="st2" cx="338.8" cy="264.3" r="4.6"/>
</g>
</svg>
